<svg width="1024" height="1024" viewBox="0 0 1024 1024" fill="none" xmlns="http://www.w3.org/2000/svg">
  <!-- Black cart part - drawn FIRST (background) -->
  <path d="M 76 334 L 211 334 C 243 334 271 353 281 383 L 317 486 C 331 527 371 556 415 556 L 746 556 C 762 556 775 543 775 527 C 775 510 762 497 746 497 L 672 497 L 672 377 L 782 377 C 855 419 900 498 900 585 C 900 707 801 806 679 806 L 220 806 C 198 806 181 794 174 775 L 46 377 C 39 356 54 334 76 334 Z" fill="#000000"/>
  
  <!-- Blue upper S part - drawn SECOND (on top of black) -->
  <path d="M 714 85 C 823 85 907 169 907 278 C 907 296 905 313 901 329 L 463 329 C 450 329 439 340 439 353 C 439 366 450 377 463 377 L 672 377 L 688 556 L 415 556 C 371 556 331 527 317 486 L 281 383 C 271 353 243 334 211 334 C 196 221 242 149 312 108 C 322 101 334 97 347 95 C 363 85 714 85 714 85 Z" fill="#39B5FF"/>
  
  <!-- Wheels -->
  <circle cx="320" cy="900" r="100" fill="#000000"/>
  <circle cx="680" cy="900" r="100" fill="#000000"/>
</svg>